<?xml version="1.0" encoding="UTF-8" standalone="no"?>
<!DOCTYPE svg  PUBLIC '-//W3C//DTD SVG 1.1//EN'  'http://www.w3.org/Graphics/SVG/1.1/DTD/svg11.dtd'>
<svg id="Layer_2" xmlns="http://www.w3.org/2000/svg" xml:space="preserve" height="841.89px" viewBox="0 0 595.28 841.89" width="595.28px" version="1.1" y="0px" x="0px" xmlns:xlink="http://www.w3.org/1999/xlink" enable-background="new 0 0 595.28 841.89">
<linearGradient id="SVGID_1_" y2="507.87" gradientUnits="userSpaceOnUse" x2="357.87" gradientTransform="matrix(.999 -.0451 .0451 .999 -18.059 14.329)" y1="589.21" x1="390.54">
	<stop stop-color="#3A693E" offset="0"/>
	<stop stop-color="#9EBF50" offset=".5"/>
	<stop stop-color="#2E5834" offset="1"/>
</linearGradient>
<path d="m316.93 519.98c6.077 7.188 7.408 13.647 18.111 21.455-0.12-2.364-0.089-3.898 1.079-3.803 4.668 3.483 10.319 7.884 15.016 13.837l-0.311-6.868c5.146 5.373 9.072 9.638 17.284 14.234l-1.036-6.335c5.34 2.018 9.886 6.934 14.459 12.611l-0.271-5.995 13.024 8.547-0.231-5.12 17.899 8.45-0.073-1.622c12.096 2.383 27.074 12.216 41.53 21.897 0.322-8.148-22.12-23.341-43.827-36.747l3.794-1.86c-7.886-4.787-15.161-8.558-20.538-8.708l3.52-2.411c-3.851-2.977-9.797-3.522-18.588-4.29l2.606-3.245c-2.985-2.468-9.288-2.427-17.016-2.735l2.175-1.726c-4.069-2.386-10.273-2.24-17.124-2.354l1.8-1.708-33.367-7.377-0.954 1.043 1.05 0.83z" fill="url(#SVGID_1_)"/>
<linearGradient id="SVGID_2_" y2="552.69" gradientUnits="userSpaceOnUse" x2="290.47" gradientTransform="matrix(.999 -.0451 .0451 .999 -18.059 14.329)" y1="565.35" x1="140.47">
	<stop stop-color="#3A693E" offset="0"/>
	<stop stop-color="#9EBF50" offset=".5"/>
	<stop stop-color="#2E5834" offset="1"/>
</linearGradient>
<path d="m310.24 519.34c-5.405 7.707-6.147 14.259-16.104 23-0.093-2.365-0.263-3.891-1.418-3.689-4.335 3.889-9.565 8.781-13.706 15.134l-0.311-6.868c-4.641 5.815-8.166 10.417-15.931 15.734l0.461-6.401c-5.136 2.49-9.22 7.797-13.263 13.862l-0.271-5.994-12.201 9.686-0.23-5.119-17.065 10.03-0.073-1.623c-11.832 3.464-25.862 14.606-39.387 25.553-1.056-8.086 19.926-25.24 40.336-40.549l-3.947-1.511c7.422-5.479 14.328-9.891 19.67-10.523l-3.723-2.085c3.567-3.311 9.439-4.392 18.125-5.948l-2.888-2.998c2.75-2.727 9.031-3.253 16.699-4.258l-2.321-1.522c3.837-2.743 10.029-3.157 16.842-3.889l-1.947-1.538 32.566-10.355 1.045 0.953-0.96 0.93z" fill="url(#SVGID_2_)"/>
<linearGradient id="SVGID_3_" y2="467.75" gradientUnits="userSpaceOnUse" x2="358.54" gradientTransform="matrix(.999 -.0451 .0451 .999 -18.059 14.329)" y1="510.42" x1="463.21">
	<stop stop-color="#3A693E" offset="0"/>
	<stop stop-color="#9EBF50" offset=".5"/>
	<stop stop-color="#2E5834" offset="1"/>
</linearGradient>
<path d="m316.94 516.39c15.895-4.443 25.266-6.166 37.686-15.216l0.098 2.165 15.872-10.56 0.219 4.827 14.958-12.354 0.128 2.831 14.307-8.321 0.104 2.332 15.268-9.199 0.15 3.33 16.151-8.07 0.249 5.493 5.911-5.771 0.075 1.665 9.58-5.104 0.21 4.661 18.646-9.017-3.484 7.831 14.216-6.648 0.075 1.666 7.842-3.69 0.15 3.328c17.475-3.963 27.83-5.939 45.136-5.375-13.301 8.159-24.573 13.313-37.496 15.709l1.271 2.277c-5.192 2.873-9.915 5.098-17.082 5.944l6.141 2.976c-5.929 3.658-10.188 5.312-17.602 5.55l3.117 6.198c-6.466 2.314-11.841 4.093-17.226 2.78l4.781 6.123c-8.016 2.63-14.775 2.948-21.312 0.963l6.645 6.749c-8.576 1.946-11.774-0.181-19.421-1.499l5.447 6.093-22.379-0.49 2.708 4.55-16.936-1.904 1.534 4.435-17.82-3.032-0.039 2.838-16.027-3.948 0.098 2.165c-17.001-5.176-27.104-5.778-42.046-3.564l0.09-1.73z" fill="url(#SVGID_3_)"/>
<linearGradient id="SVGID_4_" y2="468.25" gradientUnits="userSpaceOnUse" x2="248.82" gradientTransform="matrix(.999 -.0451 .0451 .999 -18.059 14.329)" y1="539.58" x1="95.486">
	<stop stop-color="#3A693E" offset="0"/>
	<stop stop-color="#9EBF50" offset=".5"/>
	<stop stop-color="#2E5834" offset="1"/>
</linearGradient>
<path d="m310.9 515.74c-16.231-2.992-25.72-3.863-38.905-11.756l0.098 2.165-16.76-9.086 0.218 4.828-16.011-10.956 0.128 2.831-14.998-6.997 0.106 2.332-16.035-7.786 0.151 3.331-16.814-6.582 0.248 5.494-6.408-5.216 0.075 1.666-10-4.22 0.211 4.661-19.383-7.299 4.176 7.485-14.757-5.339 0.075 1.665-8.142-2.969 0.15 3.329c-17.762-2.372-28.253-3.406-45.438-1.283 13.983 6.926 25.674 11.044 38.76 12.263l-1.06 2.384c5.431 2.394 10.335 4.184 17.548 4.38l-5.847 3.517c6.235 3.11 10.626 4.372 18.03 3.941l-2.545 6.454c6.647 1.721 12.162 3.008 17.407 1.216l-4.21 6.529c8.219 1.896 14.98 1.604 21.312-0.963l-6.009 7.32c8.715 1.164 11.709-1.242 19.206-3.245l-4.876 6.561 22.244-2.507-2.287 4.774 16.696-3.423-1.128 4.555 17.475-4.625 0.295 2.822 15.606-5.377 0.098 2.164c16.464-6.687 26.473-8.199 41.552-7.342l-0.28-1.66z" fill="url(#SVGID_4_)"/>
<linearGradient id="SVGID_5_" y2="475.02" gradientUnits="userSpaceOnUse" x2="384.48" gradientTransform="matrix(.999 -.0451 .0451 .999 -18.059 14.329)" y1="329.69" x1="441.82">
	<stop stop-color="#3A693E" offset="0"/>
	<stop stop-color="#9EBF50" offset=".5"/>
	<stop stop-color="#2E5834" offset="1"/>
</linearGradient>
<path d="m316.66 514.07c8.037-13.137 14.735-26.297 17.779-35.005l0.81 3.133 4.469-15.551 1.49 3.436c0.193-7.85 1.216-13.22 3.812-19.023l2.845 3.876 2.902-16.983 1.559 4.935c1.35-8.776 3.997-15.398 7.074-20.673l1.157 3.451c4.073-6.462 6.655-13.079 7.906-20.711l2.526 7.894c1.427-7.382 3.599-12.846 7.255-20.348l1.496 7.273c3.072-9.273 5.896-14.583 9.307-19.273l2.851 7.712c-1.144-0.672 1.988-15.104 2.373-13.954 0.022 0.499 1.771 2.255 1.771 2.255l2.757-9.134 3.772 5.961c1.537-7.535 4.09-12.566 9.18-18.392l3.115 9.87c2.255-5.631 2.354-10.707 2.551-15.464l5.944 4.069c0.162-5.473 0.769-8.663 3.728-13.515l3.993 7.16c2.055-7.101 3.467-12.655 8.496-18.736l2.662 7.221 4.529-10.548 4.296 6.479c3.274-7.184 5.313-12.775 10.842-18.508l3.224 4.859 5.877-10.275 2.858 4.208 2.939-8.809 2.133 2.907 35.535-40.645c-6.881 19.828-17.125 43.113-25.503 48.534l3.421 1.848c-1.246 4.588-3.557 5.36-7.388 6.34l2.799 2.876c-1.136 4.188-2.721 7.568-6.631 8.308l2.579 1.719c-0.653 2.363-3.072 3.906-6.774 5.144l6.652-0.468c-1.787 5.308-5.22 8.93-11.605 12.704l5.365 0.592c-2.627 7.14-5.296 10.446-11.453 12.363l4.919 1.78-5.724 6.265 2.891 1.204c-3.218 2.889-5.479 4.676-9.477 4.433l6.44 2.21c-3.037 8.073-7.265 9.721-14.858 10.849l7.945 2.311c-3.276 6.423-6.565 10.175-13.794 12.301l6.6 2.039c-2.86 3.703-5.014 6.886-9.78 8.784l3.724 1.166-12.686 3.576 12.374 0.609c-6.784 4.983-12.772 9.55-19.498 11.559 4.242 0.687 6.812 1.143 10.169 3.544l-18.913 6.027 4.169 3.648c-2.595 3.34-8.711 5.946-15.993 7.896l3.936 2.158c-5.359 3.751-11.424 7.769-16.675 7.593 0 0 1.648 3.263 2.163 3.572 0.515 0.311-17.634 4.802-17.634 4.802l2.821 3.376-18.255 5.829 2.988 3.369c-21.907 4.794-33.453 13.106-47.067 29.32l-0.06-1.33z" fill="url(#SVGID_5_)"/>
<linearGradient id="SVGID_6_" y2="456.26" gradientUnits="userSpaceOnUse" x2="273.79" gradientTransform="matrix(.999 -.0451 .0451 .999 -18.059 14.329)" y1="336.93" x1="111.79">
	<stop stop-color="#3A693E" offset="0"/>
	<stop stop-color="#9EBF50" offset=".5"/>
	<stop stop-color="#2E5834" offset="1"/>
</linearGradient>
<path d="m312.05 514.27c-9.189-12.357-17.047-24.86-20.865-33.259l-0.523 3.193-5.853-15.085-1.175 3.556c-0.9-7.799-2.403-13.055-5.511-18.602l-2.484 4.116-4.422-16.652-1.106 5.056c-2.136-8.619-5.369-14.976-8.91-19.952l-0.841 3.542c-4.639-6.068-7.808-12.426-9.741-19.914l-1.804 8.09c-2.086-7.224-4.742-12.47-9.061-19.61l-0.834 7.377c-3.896-8.958-7.186-13.992-11.006-18.354l-2.144 7.938c1.079-0.773-3.341-14.864-3.621-13.684 0.023 0.5-1.56 2.406-1.56 2.406l-3.569-8.848-3.22 6.277c-2.209-7.366-5.206-12.146-10.8-17.489l-2.213 10.11c-2.752-5.405-3.308-10.451-3.934-15.171l-5.553 4.588c-0.656-5.436-1.547-8.559-4.931-13.124l-3.332 7.491c-2.687-6.886-4.594-12.292-10.151-17.894l-2 7.431-5.461-10.097-3.695 6.841c-3.908-6.86-6.443-12.245-12.467-17.455l-2.771 5.13-6.778-9.704-2.468 4.45-3.722-8.508-1.862 3.087-39.055-37.276c8.641 19.127 20.942 41.393 29.775 46.037l-3.241 2.149c1.655 4.458 4.026 5.017 7.93 5.648l-2.529 3.117c1.508 4.068 3.392 7.292 7.354 7.676l-2.415 1.944c0.864 2.294 3.411 3.613 7.211 4.513l-6.668 0.134c2.259 5.125 6.003 8.422 12.704 11.605l-5.29 1.073c3.26 6.874 6.216 9.926 12.522 11.28l-4.739 2.216 6.265 5.723-2.771 1.46c3.466 2.587 5.879 4.163 9.837 3.56l-6.214 2.783c3.753 7.766 8.112 9.026 15.776 9.465l-7.705 3.018c3.842 6.101 7.456 9.542 14.847 11.007l-6.389 2.625c3.183 3.43 5.614 6.406 10.532 7.867l-3.602 1.497 12.956 2.417-12.268 1.723c7.206 4.352 13.581 8.358 20.461 9.753-4.164 1.066-6.682 1.753-9.809 4.447l19.379 4.296-3.823 4.011c2.886 3.092 9.212 5.137 16.641 6.422l-3.725 2.504c5.675 3.253 12.078 6.708 17.291 6.059 0 0-1.348 3.398-1.832 3.754-0.485 0.354 17.996 3.191 17.996 3.191l-2.505 3.616 18.706 4.16-2.673 3.624c22.251 2.8 34.499 10.038 49.521 24.957l-0.11-1.39z" fill="url(#SVGID_6_)"/>
<linearGradient id="SVGID_7_" y2="406.63" gradientUnits="userSpaceOnUse" x2="361.5" gradientTransform="matrix(.999 -.0451 .0451 .999 -18.059 14.329)" y1="250.64" x1="229.5">
	<stop stop-color="#3A693E" offset="0"/>
	<stop stop-color="#9EBF50" offset=".5"/>
	<stop stop-color="#2E5834" offset="1"/>
</linearGradient>
<path d="m313.59 520.51c-2.392-16.487-5.911-32.067-9.395-41.421l2.839 2.052-7.027-16.035 3.614 1.834c-5.264-6.671-8.123-11.848-9.974-18.474l5.044 1.264-9.319-16.144 4.706 3.032c-4.941-8.239-7.314-15.58-8.399-22.097l3.347 2.077c-1.077-8.193-3.499-15.486-7.732-22.705l7.556 4.832c-3.914-7.132-5.88-13.182-8.022-21.952l6.269 5.024c-3.852-9.842-5.171-16.211-5.573-22.471l7.701 4.456c-1.417 0.229-8.783-13.951-7.667-13.259 0.363 0.401 3.031 0.658 3.031 0.658l-4.018-9.509 7.256 2.36c-3.928-7.334-5.28-13.287-5.071-21.65l9.41 6.07c-2.015-6.245-5.439-10.54-8.561-14.638l7.755-0.713c-3.644-4.669-5.344-7.744-6.236-13.827l8.268 3.208c-3.195-7.331-5.858-12.932-5.876-21.465l7.203 4.175-3.52-11.908 8.049 2.431c-2.241-8.24-4.406-14.306-3.766-22.894l6.039 1.823-2.211-12.611 5.285 1.532-3.64-9.365 3.782 0.949 1.479-58.368c7.976 21.26 15.542 47.719 12.318 58.015l4.122-0.822c2.132 4.682 0.741 6.918-1.767 10.379l4.316 0.463c1.948 4.271 2.965 8.18 0.222 11.495l3.334-0.35c1.091 2.419 0.144 5.373-2.081 8.959l5.21-4.98c2.182 5.654 1.828 11.037-0.874 18.586l4.87-3.208c2.748 7.758 2.812 12.353-0.986 18.199l5.322-1.912-0.434 9.166 3.234-0.992c-0.68 4.628-1.324 7.675-4.818 10.231l6.885-2.603c3.049 8.82 0.673 13.109-4.865 19.288l8.205-3.558c1.712 7.608 1.57 13.003-2.977 19.762l6.9-2.857c0.178 5.057 0.584 9.195-2.068 14.063l3.903-1.597-8.083 11.731 10.716-8.031c-2.202 8.831-4.027 16.765-8.235 23.079 4.006-2.355 6.458-3.75 10.908-4.066l-11.569 18.07 5.988 0.162c0.148 4.572-3.136 10.963-7.849 17.612l4.765-0.918c-1.865 6.821-4.135 14.353-8.624 17.828 0 0 3.625 1.58 4.268 1.484 0.644-0.099-11.354 16.166-11.354 16.166l4.68 0.862-11.158 17.453 4.813 0.742c-14.909 19.109-18.771 34-18.897 56.893l-0.96-1.04z" fill="url(#SVGID_7_)"/>
<linearGradient id="SVGID_8_" y2="529.99" gradientUnits="userSpaceOnUse" x2="285.31" gradientTransform="matrix(.999 -.0451 .0451 .999 -18.059 14.329)" y1="604.66" x1="315.3">
	<stop stop-color="#3A693E" offset="0"/>
	<stop stop-color="#9EBF50" offset=".5"/>
	<stop stop-color="#2E5834" offset="1"/>
</linearGradient>
<path d="m309.36 516.31c0.47-1.584 1.098-2.176 2.681-2.04 1.342-0.046 2.888-0.024 4.071 0.524 0.679 1.225 1.146 2.381 1.324 4.403l-2.032 2.095-2.258 116.22-6.243 0.282 2.46-121.47z" fill="url(#SVGID_8_)"/>
<linearGradient id="SVGID_9_" y2="531" gradientUnits="userSpaceOnUse" x2="286.77" gradientTransform="matrix(.999 -.0451 .0451 .999 -18.059 14.329)" y1="601.63" x1="315.14">
	<stop stop-color="#70AC54" offset="0"/>
	<stop stop-color="#F3E94F" offset=".5"/>
	<stop stop-color="#70AC54" offset="1"/>
</linearGradient>
<path opacity=".3" d="m312.05 516.94c-0.423-1.899 2.57-2.118 2.161-0.098l-1.104 116-3.663 0.165 2.6-116.06z" fill="url(#SVGID_9_)"/>
</svg>
