<?xml version="1.0" encoding="UTF-8" standalone="no"?>
<svg viewBox="0 0 521.23871 529.31995" xmlns="http://www.w3.org/2000/svg" xmlns:xlink="http://www.w3.org/1999/xlink">
<defs>
<filter id="filter3382">
<feGaussianBlur stdDeviation="2.1557"/>
</filter>
<filter id="filter3534">
<feGaussianBlur stdDeviation="1.37027"/>
</filter>
<linearGradient id="linearGradient3470">
<stop offset="0"/>
<stop offset="1" stop-opacity="0"/>
</linearGradient>
<linearGradient id="linearGradient3390">
<stop offset="0" stop-color="#fff"/>
<stop offset="1" stop-color="#fff" stop-opacity="0"/>
</linearGradient>
<linearGradient id="linearGradient2898">
<stop offset="0" stop-color="#eceee9"/>
<stop offset="1" stop-color="#c6b6b6" stop-opacity="0"/>
</linearGradient>
<linearGradient gradientUnits="userSpaceOnUse" id="linearGradient3480" x1="212.83177" x2="217.62432" y1="643.11562" y2="627.93923">
<stop offset="0" stop-color="#fff" stop-opacity=".75138"/>
<stop offset="1" stop-color="#fff" stop-opacity="0"/>
</linearGradient>
<linearGradient gradientUnits="userSpaceOnUse" id="linearGradient2944" spreadMethod="reflect" x1="487.50882" x2="621.52289" xlink:href="#linearGradient2898"/>
<linearGradient gradientUnits="userSpaceOnUse" id="linearGradient3127" x1="396.95291" x2="365.05893" xlink:href="#linearGradient3390" y1="442.70932" y2="360.93362"/>
<linearGradient gradientUnits="userSpaceOnUse" id="linearGradient3135" x1="449.62631" x2="349.36731" xlink:href="#linearGradient3390" y1="486.28427" y2="314.88644"/>
<linearGradient gradientUnits="userSpaceOnUse" id="linearGradient3143" x1="475.9578" x2="487.61194" xlink:href="#linearGradient3470" y1="789.20842" y2="237.66514"/>
<linearGradient gradientUnits="userSpaceOnUse" id="linearGradient3246" x1="462.05515" x2="530.62656" xlink:href="#linearGradient3390"/>
<linearGradient gradientUnits="userSpaceOnUse" id="linearGradient3272" x1="312.56506" x2="500.29697" xlink:href="#linearGradient3470" y1="728.25836" y2="590.70825"/>
<linearGradient gradientUnits="userSpaceOnUse" id="linearGradient3296" x1="738.84052" x2="300.94659" xlink:href="#linearGradient3470" y1="935.02405" y2="534.75629"/>
<linearGradient gradientUnits="userSpaceOnUse" id="linearGradient3300" x1="393.42719" x2="476.02936" xlink:href="#linearGradient3390" y1="410.52774" y2="498.66617"/>
<linearGradient gradientUnits="userSpaceOnUse" id="linearGradient3322" x1="519.14221" x2="452.30872" xlink:href="#linearGradient3390" y1="639.38013" y2="645.0625"/>
<linearGradient gradientUnits="userSpaceOnUse" id="linearGradient3404" x1="415.92352" x2="508.94351" xlink:href="#linearGradient3470" y1="170.45996" y2="585.60388"/>
<linearGradient gradientUnits="userSpaceOnUse" id="linearGradient3416" x1="472.75141" x2="197.98991" xlink:href="#linearGradient3390" y1="658.16576" y2="565.23174"/>
<linearGradient gradientUnits="userSpaceOnUse" id="linearGradient3476" x1="202.63115" x2="201.46592" xlink:href="#linearGradient3470" y1="623.14668" y2="612.76283"/>
<radialGradient cx="284.86301" cy="667.49408" fx="343.45184" fy="706.10431" gradientTransform="matrix(1,0,0,.36628,0,423.00496)" gradientUnits="userSpaceOnUse" id="radialGradient3256" r="173.74623">
<stop offset="0"/>
<stop offset=".72804" stop-opacity=".81081"/>
<stop offset="1" stop-opacity="0"/>
</radialGradient>
<radialGradient cx="388.66751" cy="655.15833" fx="394.22461" fy="754.88953" gradientTransform="matrix(1,0,0,1.16038,0,-101.8667)" gradientUnits="userSpaceOnUse" id="radialGradient3304" r="107.07617">
<stop offset="0" stop-opacity=".28729"/>
<stop offset="1" stop-opacity="0"/>
</radialGradient>
<radialGradient cx="204.14012" cy="464.34125" fx="199.9191" fy="598.38995" gradientTransform="matrix(.92613,-4.6209423e-8,6.1492962e-8,1.98872,45.68531,-460.63562)" gradientUnits="userSpaceOnUse" id="radialGradient2904" r="171.42857" xlink:href="#linearGradient2898"/>
<radialGradient cx="398.48984" cy="499.07516" gradientTransform="matrix(1.15525,0,0,.5,-61.86471,180.4668)" gradientUnits="userSpaceOnUse" id="radialGradient2916" r="171.42857" spreadMethod="reflect" xlink:href="#linearGradient2898"/>
<radialGradient cx="264.65997" cy="564.4585" fx="252.53815" fy="545.35742" gradientTransform="matrix(1,0,0,4.125,0,-1763.9326)" gradientUnits="userSpaceOnUse" id="radialGradient2970" r="24.24366" xlink:href="#linearGradient2898"/>
<radialGradient cx="264.65997" cy="564.4585" fx="277.07745" fy="552.4173" gradientTransform="matrix(1,0,0,4.125,0,-1763.9326)" gradientUnits="userSpaceOnUse" id="radialGradient2972" r="24.24366" xlink:href="#linearGradient3470"/>
<radialGradient cx="285.71426" cy="532.36218" fx="292.74445" fy="648.23889" gradientTransform="matrix(.91304,2.7805358e-8,0,.81625,24.84434,12.10697)" gradientUnits="userSpaceOnUse" id="radialGradient3234" r="171.42857" xlink:href="#linearGradient3470"/>
<radialGradient cx="400.02036" cy="588.42487" gradientTransform="matrix(.17174,.70808,-1.47486,.21806,1268.1112,213.41957)" gradientUnits="userSpaceOnUse" id="radialGradient3286" r="107.07617" xlink:href="#linearGradient3390"/>
<radialGradient cx="196.99835" cy="623.29962" gradientTransform="matrix(.97981,.19994,-.46661,2.28663,419.62974,-785.85654)" gradientUnits="userSpaceOnUse" id="radialGradient3340" r="69.27651" xlink:href="#linearGradient3470"/>
<radialGradient cx="401.50946" cy="662.97162" gradientTransform="matrix(.82178,-.42006,.79423,.79304,-439.66434,275.57864)" gradientUnits="userSpaceOnUse" id="radialGradient3396" r="112.07617" xlink:href="#linearGradient3390"/>
<radialGradient cx="210.11172" cy="721.03217" gradientTransform="matrix(1,0,0,.25926,0,534.0979)" gradientUnits="userSpaceOnUse" id="radialGradient3444" r="54.54824" xlink:href="#linearGradient3470"/>
<radialGradient cx="154.01448" cy="570.1958" gradientTransform="matrix(.44223,-1.51876,3.84246,1.11885,-2050.2279,199.92413)" gradientUnits="userSpaceOnUse" id="radialGradient3456" r="18.40757" xlink:href="#linearGradient3390"/>
<radialGradient cx="192.24854" cy="571.40808" gradientTransform="matrix(.18187,-1.21501,3.95794,.59246,-2066.1621,442.31135)" gradientUnits="userSpaceOnUse" id="radialGradient3466" r="18.40757" xlink:href="#linearGradient3390"/>
</defs>
<title>trash</title>
<g transform="translate(-105.05586,-268.4838)">
<path d="m458.60924,667.49408c0,35.14719-77.78884,63.63961-173.74623,63.63961s-173.74623-28.49242-173.74623-63.63961 77.78883-63.63961 173.74623-63.63961 173.74623,28.49242 173.74623,63.63961z" fill="url(#radialGradient3256)" fill-rule="evenodd" opacity=".85405" transform="matrix(.96825,0,0,1.09524,112.07883,-53.46934)"/>
<path d="m587.05514,398.98113-341.1461,1.40625c12.9324,29.80885 43.88459,269.80279 44.13271,270.09375-.002.1258 0,.249 0,.375 0,30.92582 56.59151,56.03125 126.3125,56.03125 68.3945,0 124.122-24.13691 126.21875-54.25 .5855-.25227.90625-.51736.90625-.8125 0-8.57146 43.57589-272.84375 43.57589-272.84375z" fill="#fff" fill-rule="evenodd" stroke="url(#linearGradient3143)" stroke-linejoin="round" stroke-width="6.93961"/>
<path d="m589.198,398.98113-346.1461,1.40625c12.9324,29.80885 46.74173,269.80279 46.98985,270.09375-.002.1258 0,.249 0,.375 0,30.92582 56.59151,56.03125 126.3125,56.03125 68.3945,0 124.122-24.13691 126.21875-54.25 .5855-.25227.90625-.51736.90625-.8125 0-8.57146 45.71875-272.84375 45.71875-272.84375z" fill="#808080" fill-rule="evenodd"/>
<path d="m589.198,398.98113-346.1461,1.40625c12.9324,29.80885 46.74173,269.80279 46.98985,270.09375-.002.1258 0,.249 0,.375 0,30.92582 56.59151,56.03125 126.3125,56.03125 68.3945,0 124.122-24.13691 126.21875-54.25 .5855-.25227.90625-.51736.90625-.8125 0-8.57146 45.71875-272.84375 45.71875-272.84375z" fill="url(#linearGradient2944)" fill-rule="evenodd"/>
<path d="m246.47722,755.37733c0,0 42.42641,4.04061 76.77159-4.04061s46.46702-28.28427 46.46702-28.28427 16.16244-191.92898-24.24366-218.19295-64.64976,12.12183-80.8122,44.44671-30.30458,80.81221-30.30458,94.95434 6.06092,44.44672 6.06092,54.54824 2.0203,54.54824 6.06091,56.56854z" fill="url(#radialGradient3340)" fill-rule="evenodd" filter="url(#filter3382)"/>
<path d="m457.14287,360.93362c0,47.3387-76.75119,85.71429-171.42858,85.71429s-171.42857-38.37559-171.42857-85.71429 76.75119-85.71428 171.42857-85.71428 171.42858,38.37559 171.42858,85.71428z" fill="#fff" fill-rule="evenodd" stroke="url(#linearGradient3135)" stroke-linejoin="round" stroke-width="10" transform="matrix(1.00321,0,0,.78974,129.71073,109.64182)"/>
<path d="m457.14287,360.93362c0,47.3387-76.75119,85.71429-171.42858,85.71429s-171.42857-38.37559-171.42857-85.71429 76.75119-85.71428 171.42857-85.71428 171.42858,38.37559 171.42858,85.71428z" fill="#4d4d4d" fill-rule="evenodd" transform="matrix(1.00321,0,0,.78974,129.71073,109.64182)"/>
<path d="m457.14287,360.93362c0,47.3387-76.75119,85.71429-171.42858,85.71429s-171.42857-38.37559-171.42857-85.71429 76.75119-85.71428 171.42857-85.71428 171.42858,38.37559 171.42858,85.71428z" fill="url(#radialGradient2916)" fill-rule="evenodd" transform="matrix(1.00321,0,0,.78974,129.71073,109.64182)"/>
<path d="m457.14287,360.93362c0,47.3387-76.75119,85.71429-171.42858,85.71429s-171.42857-38.37559-171.42857-85.71429 76.75119-85.71428 171.42857-85.71428 171.42858,38.37559 171.42858,85.71428z" fill="#4d4d4d" fill-rule="evenodd" stroke="url(#linearGradient3127)" stroke-linejoin="round" stroke-width="10" transform="matrix(.95725,0,0,.75357,142.83967,101.0245)"/>
<path d="m457.14287,360.93362c0,47.3387-76.75119,85.71429-171.42858,85.71429s-171.42857-38.37559-171.42857-85.71429 76.75119-85.71428 171.42857-85.71428 171.42858,38.37559 171.42858,85.71428z" fill="url(#radialGradient2904)" fill-rule="evenodd" transform="matrix(.95725,0,0,.75357,142.83967,101.0245)"/>
<path d="m490.62657,458.97278c0,0 8.57143,111.42857 2.85714,148.57143s-31.42857,40-31.42857,80 14.28572,28.57142 14.28572,28.57142-2.85715-2.85714 25.71428-45.71428 28.57143-42.85714 28.57143-62.85714-8.57143-105.71429-8.57143-120v-37.14286l-31.42857,8.57143z" fill="url(#linearGradient3246)" fill-rule="evenodd"/>
<path d="m288.90364,564.4585c0,55.23129-10.85426,100.00509-24.24367,100.00509s-24.24366-44.7738-24.24366-100.00509 10.85426-100.0051 24.24366-100.0051 24.24367,44.77381 24.24367,100.0051z" fill="url(#radialGradient2970)" fill-rule="evenodd" transform="matrix(.82303,-.02515,.03381,1.10637,150.39933,-28.94855)"/>
<path d="m288.90364,564.4585c0,55.23129-10.85426,100.00509-24.24367,100.00509s-24.24366-44.7738-24.24366-100.00509 10.85426-100.0051 24.24366-100.0051 24.24367,44.77381 24.24367,100.0051z" fill="url(#radialGradient2972)" fill-rule="evenodd" transform="matrix(.82303,-.02515,.03381,1.10637,150.39933,-28.94855)"/>
<g opacity=".65405">
<path d="m288.90364,564.4585c0,55.23129-10.85426,100.00509-24.24367,100.00509s-24.24366-44.7738-24.24366-100.00509 10.85426-100.0051 24.24366-100.0051 24.24367,44.77381 24.24367,100.0051z" fill="url(#radialGradient2970)" fill-rule="evenodd" transform="matrix(.41697,.03523,-.09318,1.10295,489.50976,-73.47888)"/>
<path d="m288.90364,564.4585c0,55.23129-10.85426,100.00509-24.24367,100.00509s-24.24366-44.7738-24.24366-100.00509 10.85426-100.0051 24.24366-100.0051 24.24367,44.77381 24.24367,100.0051z" fill="url(#radialGradient2972)" fill-rule="evenodd" transform="matrix(.41697,.03523,-.09318,1.10295,489.50976,-73.47888)"/>
</g>
<g opacity=".57297">
<path d="m288.90364,564.4585c0,55.23129-10.85426,100.00509-24.24367,100.00509s-24.24366-44.7738-24.24366-100.00509 10.85426-100.0051 24.24366-100.0051 24.24367,44.77381 24.24367,100.0051z" fill="url(#radialGradient2970)" fill-rule="evenodd" transform="matrix(.58038,.0082,-.01564,1.10677,339.90765,-36.57061)"/>
<path d="m288.90364,564.4585c0,55.23129-10.85426,100.00509-24.24367,100.00509s-24.24366-44.7738-24.24366-100.00509 10.85426-100.0051 24.24366-100.0051 24.24367,44.77381 24.24367,100.0051z" fill="url(#radialGradient2972)" fill-rule="evenodd" transform="matrix(.58038,.0082,-.01564,1.10677,339.90765,-36.57061)"/>
</g>
<g opacity=".80541">
<path d="m288.90364,564.4585c0,55.23129-10.85426,100.00509-24.24367,100.00509s-24.24366-44.7738-24.24366-100.00509 10.85426-100.0051 24.24366-100.0051 24.24367,44.77381 24.24367,100.0051z" fill="url(#radialGradient2970)" fill-rule="evenodd" transform="matrix(.66081,-.02869,.04801,1.10584,237.53266,-25.92493)"/>
<path d="m288.90364,564.4585c0,55.23129-10.85426,100.00509-24.24367,100.00509s-24.24366-44.7738-24.24366-100.00509 10.85426-100.0051 24.24366-100.0051 24.24367,44.77381 24.24367,100.0051z" fill="url(#radialGradient2972)" fill-rule="evenodd" transform="matrix(.66081,-.02869,.04801,1.10584,237.53266,-25.92493)"/>
</g>
<g opacity=".43243">
<path d="m288.90364,564.4585c0,55.23129-10.85426,100.00509-24.24367,100.00509s-24.24366-44.7738-24.24366-100.00509 10.85426-100.0051 24.24366-100.0051 24.24367,44.77381 24.24367,100.0051z" fill="url(#radialGradient2970)" fill-rule="evenodd" transform="matrix(.49919,.0161,-.03568,1.10631,407.92567,-54.38489)"/>
<path d="m288.90364,564.4585c0,55.23129-10.85426,100.00509-24.24367,100.00509s-24.24366-44.7738-24.24366-100.00509 10.85426-100.0051 24.24366-100.0051 24.24367,44.77381 24.24367,100.0051z" fill="url(#radialGradient2972)" fill-rule="evenodd" transform="matrix(.49919,.0161,-.03568,1.10631,407.92567,-54.38489)"/>
</g>
<path d="m288.90364,564.4585c0,55.23129-10.85426,100.00509-24.24367,100.00509s-24.24366-44.7738-24.24366-100.00509 10.85426-100.0051 24.24366-100.0051 24.24367,44.77381 24.24367,100.0051z" fill="url(#radialGradient2970)" fill-rule="evenodd" transform="matrix(.33044,-.0785,.17007,1.08722,99.93267,-33.33022)"/>
<path d="m288.90364,564.4585c0,55.23129-10.85426,100.00509-24.24367,100.00509s-24.24366-44.7738-24.24366-100.00509 10.85426-100.0051 24.24366-100.0051 24.24367,44.77381 24.24367,100.0051z" fill="url(#radialGradient2972)" fill-rule="evenodd" transform="matrix(.33044,-.0785,.17007,1.08722,103.8746,-29.1959)"/>
<g opacity=".80541">
<path d="m288.90364,564.4585c0,55.23129-10.85426,100.00509-24.24367,100.00509s-24.24366-44.7738-24.24366-100.00509 10.85426-100.0051 24.24366-100.0051 24.24367,44.77381 24.24367,100.0051z" fill="url(#radialGradient2970)" fill-rule="evenodd" transform="matrix(.65809,-.06636,.11106,1.1013,105.48914,-19.66494)"/>
<path d="m288.90364,564.4585c0,55.23129-10.85426,100.00509-24.24367,100.00509s-24.24366-44.7738-24.24366-100.00509 10.85426-100.0051 24.24366-100.0051 24.24367,44.77381 24.24367,100.0051z" fill="url(#radialGradient2972)" fill-rule="evenodd" transform="matrix(.65809,-.06636,.11106,1.1013,105.48914,-19.66494)"/>
</g>
<g opacity=".43243">
<path d="m288.90364,564.4585c0,55.23129-10.85426,100.00509-24.24367,100.00509s-24.24366-44.7738-24.24366-100.00509 10.85426-100.0051 24.24366-100.0051 24.24367,44.77381 24.24367,100.0051z" fill="url(#radialGradient2970)" fill-rule="evenodd" transform="matrix(.49379,-.07497,.16616,1.09434,84.98096,-24.30784)"/>
<path d="m288.90364,564.4585c0,55.23129-10.85426,100.00509-24.24367,100.00509s-24.24366-44.7738-24.24366-100.00509 10.85426-100.0051 24.24366-100.0051 24.24367,44.77381 24.24367,100.0051z" fill="url(#radialGradient2972)" fill-rule="evenodd" transform="matrix(.49379,-.07497,.16616,1.09434,84.98096,-24.30784)"/>
</g>
<path d="m457.14287,360.93362c0,47.3387-76.75119,85.71429-171.42858,85.71429s-171.42857-38.37559-171.42857-85.71429 76.75119-85.71428 171.42857-85.71428 171.42858,38.37559 171.42858,85.71428z" fill="url(#radialGradient3234)" fill-rule="evenodd" transform="matrix(.95725,0,0,.75357,142.83967,101.0245)"/>
<path d="m473.48371,433.25849 17.14286,22.85714 31.42857-2.85714-14.28571-25.71428-34.28572,5.71428z" fill="#fff" fill-rule="evenodd"/>
<path d="m507.09659,635.16919c0,68.62069-47.93964,124.24876-107.07617,124.24876s-107.07618-55.62807-107.07618-124.24876 47.93964-124.24876 107.07618-124.24876 107.07617,55.62807 107.07617,124.24876z" fill="#808080" fill-rule="evenodd" transform="matrix(.84615,.17411,-.2231,1.17765,66.85697,-211.22664)"/>
<path d="m507.09659,635.16919c0,68.62069-47.93964,124.24876-107.07617,124.24876s-107.07618-55.62807-107.07618-124.24876 47.93964-124.24876 107.07618-124.24876 107.07617,55.62807 107.07617,124.24876z" fill="url(#linearGradient3272)" fill-rule="evenodd" transform="matrix(.84615,.17411,-.2231,1.17765,66.85697,-211.22664)"/>
<path d="m507.09659,635.16919c0,68.62069-47.93964,124.24876-107.07617,124.24876s-107.07618-55.62807-107.07618-124.24876 47.93964-124.24876 107.07618-124.24876 107.07617,55.62807 107.07617,124.24876z" fill="#ccc" fill-rule="evenodd" transform="matrix(.80958,.16659,-.21345,1.12675,53.18009,-181.28297)"/>
<path d="m507.09659,635.16919c0,68.62069-47.93964,124.24876-107.07617,124.24876s-107.07618-55.62807-107.07618-124.24876 47.93964-124.24876 107.07618-124.24876 107.07617,55.62807 107.07617,124.24876z" fill="url(#radialGradient3286)" fill-rule="evenodd" transform="matrix(.84615,.17411,-.2231,1.17765,66.85697,-211.22664)"/>
<path d="m507.09659,635.16919c0,68.62069-47.93964,124.24876-107.07617,124.24876s-107.07618-55.62807-107.07618-124.24876 47.93964-124.24876 107.07618-124.24876 107.07617,55.62807 107.07617,124.24876z" fill="#ccc" fill-rule="evenodd" transform="matrix(.80958,.16659,-.21345,1.12675,53.18009,-181.28297)"/>
<path d="m507.09659,635.16919c0,68.62069-47.93964,124.24876-107.07617,124.24876s-107.07618-55.62807-107.07618-124.24876 47.93964-124.24876 107.07618-124.24876 107.07617,55.62807 107.07617,124.24876z" fill="url(#linearGradient3296)" fill-rule="evenodd" transform="matrix(.80958,.16659,-.21345,1.12675,53.18009,-181.28297)"/>
<path d="m507.09659,635.16919c0,68.62069-47.93964,124.24876-107.07617,124.24876s-107.07618-55.62807-107.07618-124.24876 47.93964-124.24876 107.07618-124.24876 107.07617,55.62807 107.07617,124.24876z" fill="url(#linearGradient3300)" fill-rule="evenodd" transform="matrix(.80958,.16659,-.21345,1.12675,53.18009,-181.28297)"/>
<path d="m507.09659,635.16919c0,68.62069-47.93964,124.24876-107.07617,124.24876s-107.07618-55.62807-107.07618-124.24876 47.93964-124.24876 107.07618-124.24876 107.07617,55.62807 107.07617,124.24876z" fill="url(#radialGradient3304)" fill-rule="evenodd" transform="matrix(.80958,.16659,-.21345,1.12675,53.18009,-181.28297)"/>
<path d="m507.09659,635.16919c0,68.62069-47.93964,124.24876-107.07617,124.24876s-107.07618-55.62807-107.07618-124.24876 47.93964-124.24876 107.07618-124.24876 107.07617,55.62807 107.07617,124.24876z" fill="none" stroke="url(#linearGradient3322)" stroke-linejoin="round" stroke-width="10" transform="matrix(.80958,.16659,-.21345,1.12675,53.18009,-181.28297)"/>
<path d="m507.09659,635.16919c0,68.62069-47.93964,124.24876-107.07617,124.24876s-107.07618-55.62807-107.07618-124.24876 47.93964-124.24876 107.07618-124.24876 107.07617,55.62807 107.07617,124.24876z" fill="url(#linearGradient3404)" fill-rule="evenodd" stroke="url(#radialGradient3396)" stroke-linejoin="round" stroke-width="10" transform="matrix(.69359,.14272,-.18287,.96531,72.07367,-71.21578)"/>
<path d="m167,627.93361 11.42857-.71428 5-15c0,0-2.14286,2.14285 0-6.42858s5.71429-7.85714 6.42857-13.57143-1.42857-5.71428.71429-10 3.57143-7.85714 3.57143-17.14285 5.71428-15.71429 5.71428-15.71429l2.14286-8.57143 6.42857-12.85714-12.85714-1.42857-3.57143,15.71428v10.71429c0,0-.71429,10-2.85714,15s-6.42857,15-6.42857,18.57143 2.14285,7.14286-.71429,11.42857-6.42857,13.57143-6.42857,13.57143l-5,7.14286-3.57143,9.28571z" fill-rule="evenodd" filter="url(#filter3534)" stroke="#000" transform="matrix(1.11826,0,0,1.11826,24.14155,-48.0557)"/>
<path d="m171.72593,706.89001v-18.18274c0,0 107.07617-149.50258 111.11678-181.82746s4.04061-34.34519 4.04061-34.34519l6.06092-2.0203-16.16244-2.02031c0,0-16.16244-14.14214-32.32488-6.06091s-52.52794,26.26396-60.60916,54.54823-16.16244,70.71068-16.16244,90.91373-8.08122,40.4061-8.08122,40.4061 2.02031,56.56855 12.12183,58.58885z" fill="url(#linearGradient3416)" fill-rule="evenodd"/>
<path d="m264.65996,721.03217c0,7.81048-24.42208,14.14213-54.54824,14.14213s-54.54823-6.33165-54.54823-14.14213 24.42208-14.14214 54.54823-14.14214 54.54824,6.33165 54.54824,14.14214z" fill="url(#radialGradient3444)" fill-rule="evenodd" transform="matrix(1.42857,0,0,1.42857,-57.723,-280.72952)"/>
<path d="m246.99514,555.25215 7.18884-15.17641h-13.5789l-3.99379,16.77393 10.38385-1.59752z" fill="#b3b3b3" fill-rule="evenodd"/>
<path d="m235.81252,548.06332 9.58511,6.39007-9.58511,2.39628-11.98138-9.58511 11.98138.79876z" fill-rule="evenodd" stroke="#000" stroke-width="1.11826"/>
<path d="m223.83116,547.26456c0,0-5.59131.79877-8.78634,10.38387s-1.59753,30.35281-6.39008,37.54163-5.5913,6.39008-7.98758,15.97518-7.18883,11.98137.79876,16.77393 7.98759,7.98758 7.98759,7.98758v13.57889l11.98137,1.59752 3.99379-15.17641c0,0-3.99379-6.39007-8.78634-11.18261s-4.79256-7.18884-3.19504-10.38387 6.39007-14.37765 10.38387-22.36524 3.99379-11.18261 3.99379-19.1702 .79875-15.1764 4.79254-17.57268 5.59131-7.98759 5.59131-7.98759h-14.37764z" fill="#434343" fill-rule="evenodd"/>
<path d="m223.83116,547.26456c0,0-5.59131.79877-8.78634,10.38387s-1.59753,30.35281-6.39008,37.54163-5.5913,6.39008-7.98758,15.97518-7.18883,11.98137.79876,16.77393 7.98759,7.98758 7.98759,7.98758v13.57889l11.98137,1.59752 3.99379-15.17641c0,0-3.99379-6.39007-8.78634-11.18261s-4.79256-7.18884-3.19504-10.38387 6.39007-14.37765 10.38387-22.36524 3.99379-11.18261 3.99379-19.1702 .79875-15.1764 4.79254-17.57268 5.59131-7.98759 5.59131-7.98759h-14.37764z" fill="url(#radialGradient3456)" fill-rule="evenodd"/>
<path d="m223.83116,547.26456c0,0-5.59131.79877-8.78634,10.38387s-1.59753,30.35281-6.39008,37.54163-5.5913,6.39008-7.98758,15.97518-7.18883,11.98137.79876,16.77393 7.98759,7.98758 7.98759,7.98758v13.57889l11.98137,1.59752 3.99379-15.17641c0,0-3.99379-6.39007-8.78634-11.18261s-4.79256-7.18884-3.19504-10.38387 6.39007-14.37765 10.38387-22.36524 3.99379-11.18261 3.99379-19.1702 .79875-15.1764 4.79254-17.57268 5.59131-7.98759 5.59131-7.98759h-14.37764z" fill="url(#radialGradient3466)" fill-rule="evenodd"/>
<path d="m223.83116,547.26456c0,0-5.59131.79877-8.78634,10.38387s-1.59753,30.35281-6.39008,37.54163-5.5913,6.39008-7.98758,15.97518-7.18883,11.98137.79876,16.77393 7.98759,7.98758 7.98759,7.98758v13.57889l11.98137,1.59752 3.99379-15.17641c0,0-3.99379-6.39007-8.78634-11.18261s-4.79256-7.18884-3.19504-10.38387 6.39007-14.37765 10.38387-22.36524 3.99379-11.18261 3.99379-19.1702 .79875-15.1764 4.79254-17.57268 5.59131-7.98759 5.59131-7.98759h-14.37764z" fill="url(#linearGradient3476)" fill-rule="evenodd" opacity=".78453"/>
<path d="m223.83116,547.26456c0,0-5.59131.79877-8.78634,10.38387s-1.59753,30.35281-6.39008,37.54163-5.5913,6.39008-7.98758,15.97518-7.18883,11.98137.79876,16.77393 7.98759,7.98758 7.98759,7.98758v13.57889l11.98137,1.59752 3.99379-15.17641c0,0-3.99379-6.39007-8.78634-11.18261s-4.79256-7.18884-3.19504-10.38387 6.39007-14.37765 10.38387-22.36524 3.99379-11.18261 3.99379-19.1702 .79875-15.1764 4.79254-17.57268 5.59131-7.98759 5.59131-7.98759h-14.37764z" fill="url(#linearGradient3480)" fill-rule="evenodd" opacity=".78453"/>
</g>
</svg>
