<?xml version="1.0" encoding="UTF-8" standalone="no"?>
<svg id="svg2" xmlns:rdf="http://www.w3.org/1999/02/22-rdf-syntax-ns#" xmlns="http://www.w3.org/2000/svg" height="1052.4" width="744.09" version="1.1" xmlns:cc="http://creativecommons.org/ns#" xmlns:dc="http://purl.org/dc/elements/1.1/">
 <defs id="defs4">
  <filter id="filter4216">
   <feGaussianBlur id="feGaussianBlur4218" stdDeviation="12"/>
  </filter>
 </defs>
 <g id="layer1">
  <g id="g4249" transform="translate(434.29 168.57)">
   <path id="path4214" d="m177.14 346.65c0 132.55-107.45 240-240 240s-240-107.45-240-240 107.45-240 240-240 240 107.45 240 240z" transform="matrix(1.0804 0 0 1.0804 5.051 -27.856)" filter="url(#filter4216)" fill="#333"/>
   <path id="path4212" d="m177.14 346.65c0 132.55-107.45 240-240 240s-240-107.45-240-240 107.45-240 240-240 240 107.45 240 240z" fill="#00f"/>
   <path id="path4238" d="m177.14 346.65c0 132.55-25.346-47.368-157.89-47.368-132.55 0-322.11 179.92-322.11 47.368s107.45-240 240-240 240 107.45 240 240z" transform="matrix(.90476 0 0 .90476 -3.1293 13.014)" fill="#2a7fff"/>
   <g id="g3835" transform="matrix(.52810 .027952 -.027952 .52810 318.83 113.86)" stroke="#000" fill="#6f0">
    <rect id="rect3833" ry="11.429" height="237.14" width="22.857" y="649.51" x="-688.57" stroke-width="10"/>
    <g id="g3810" transform="matrix(.89047 0 0 .89047 -378.25 -19.246)">
     <g id="g2989" transform="translate(294.29 -142.86)" stroke-width="10">
      <path id="path2985" d="m-631.43 949.51-77.143-154.29 28.571 20-42.857-102.86 17.143 11.429-31.429-111.43 14.286 8.5714-22.857-80 17.143 8.5714-14.286-74.286 14.286 8.5714-14.286-91.429 14.286 11.429 8.5714-74.286 31.429-100z"/>
      <path id="path2987" d="m-630.05 945.44 51.347-164.68-24.986 24.331 25.772-108.41-15.084 14.035 13.114-115.03-12.723 10.756 9.7045-82.633-15.543 11.215 2.1627-75.616-12.723 10.756-0.59202-92.536-12.264 13.576-20.397-71.943-47.09-93.65z"/>
     </g>
     <g id="g2993" transform="matrix(.72710 .44590 -.45557 .61057 549.07 503.4)" stroke-width="12.431">
      <path id="path2995" d="m-631.43 949.51-77.143-154.29 28.571 20-42.857-102.86 17.143 11.429-31.429-111.43 14.286 8.5714-22.857-80 17.143 8.5714-14.286-74.286 14.286 8.5714-14.286-91.429 14.286 11.429 8.5714-74.286 31.429-100z"/>
      <path id="path2997" d="m-630.05 945.44 51.347-164.68-24.986 24.331 25.772-108.41-15.084 14.035 13.114-115.03-12.723 10.756 9.7045-82.633-15.543 11.215 2.1627-75.616-12.723 10.756-0.59202-92.536-12.264 13.576-20.397-71.943-47.09-93.65z"/>
     </g>
     <g id="g2999" transform="matrix(-.62834 .57679 .56399 .51211 -1270.8 679.12)" stroke-width="12.431">
      <path id="path3001" d="m-631.43 949.51-77.143-154.29 28.571 20-42.857-102.86 17.143 11.429-31.429-111.43 14.286 8.5714-22.857-80 17.143 8.5714-14.286-74.286 14.286 8.5714-14.286-91.429 14.286 11.429 8.5714-74.286 31.429-100z"/>
      <path id="path3003" d="m-630.05 945.44 51.347-164.68-24.986 24.331 25.772-108.41-15.084 14.035 13.114-115.03-12.723 10.756 9.7045-82.633-15.543 11.215 2.1627-75.616-12.723 10.756-0.59202-92.536-12.264 13.576-20.397-71.943-47.09-93.65z"/>
     </g>
     <g id="g3005" transform="matrix(-.048266 .71314 .59507 -.011764 -943.15 1259.6)" stroke-width="15.361">
      <path id="path3007" d="m-631.43 949.51-77.143-154.29 28.571 20-42.857-102.86 17.143 11.429-31.429-111.43 14.286 8.5714-22.857-80 17.143 8.5714-14.286-74.286 14.286 8.5714-14.286-91.429 14.286 11.429 8.5714-74.286 31.429-100z"/>
      <path id="path3009" d="m-630.05 945.44 51.347-164.68-24.986 24.331 25.772-108.41-15.084 14.035 13.114-115.03-12.723 10.756 9.7045-82.633-15.543 11.215 2.1627-75.616-12.723 10.756-0.59202-92.536-12.264 13.576-20.397-71.943-47.09-93.65z"/>
     </g>
     <g id="g3011" transform="matrix(.13944 .70104 -.59165 .064743 306.82 1178)" stroke-width="15.361">
      <path id="path3013" d="m-631.43 949.51-77.143-154.29 28.571 20-42.857-102.86 17.143 11.429-31.429-111.43 14.286 8.5714-22.857-80 17.143 8.5714-14.286-74.286 14.286 8.5714-14.286-91.429 14.286 11.429 8.5714-74.286 31.429-100z"/>
      <path id="path3015" d="m-630.05 945.44 51.347-164.68-24.986 24.331 25.772-108.41-15.084 14.035 13.114-115.03-12.723 10.756 9.7045-82.633-15.543 11.215 2.1627-75.616-12.723 10.756-0.59202-92.536-12.264 13.576-20.397-71.943-47.09-93.65z"/>
     </g>
     <g id="g3017" transform="matrix(-.17723 .36873 -.29299 -.17380 -172.16 1198.4)" stroke-width="26.838">
      <path id="path3019" d="m-631.43 949.51-77.143-154.29 28.571 20-42.857-102.86 17.143 11.429-31.429-111.43 14.286 8.5714-22.857-80 17.143 8.5714-14.286-74.286 14.286 8.5714-14.286-91.429 14.286 11.429 8.5714-74.286 31.429-100z"/>
      <path id="path3021" d="m-630.05 945.44 51.347-164.68-24.986 24.331 25.772-108.41-15.084 14.035 13.114-115.03-12.723 10.756 9.7045-82.633-15.543 11.215 2.1627-75.616-12.723 10.756-0.59202-92.536-12.264 13.576-20.397-71.943-47.09-93.65z"/>
     </g>
     <g id="g3036" transform="matrix(.13954 .42649 .23069 -.20102 -469.23 1258.2)" stroke-width="28.123">
      <path id="path3038" d="m-631.43 949.51-77.143-154.29 28.571 20-42.857-102.86 17.143 11.429-31.429-111.43 14.286 8.5714-22.857-80 17.143 8.5714-14.286-74.286 14.286 8.5714-14.286-91.429 14.286 11.429 8.5714-74.286 31.429-100z"/>
      <path id="path3040" d="m-630.05 945.44 51.347-164.68-24.986 24.331 25.772-108.41-15.084 14.035 13.114-115.03-12.723 10.756 9.7045-82.633-15.543 11.215 2.1627-75.616-12.723 10.756-0.59202-92.536-12.264 13.576-20.397-71.943-47.09-93.65z"/>
     </g>
    </g>
   </g>
  </g>
 </g>
</svg>
